<svg xmlns="http://www.w3.org/2000/svg" width="640" height="400" viewBox="0 0 640 400"><rect width="640" height="400" rx="24" fill="#eff8f3"/><ellipse cx="320" cy="350" rx="235" ry="17" fill="#dceee4"/><circle cx="508" cy="90" r="45" fill="#d7eee2"/><circle cx="112" cy="285" r="65" fill="#e1f2e8"/><rect x="96" y="103" width="148" height="203" rx="16" fill="white" stroke="#bfd8cc" stroke-width="3"/><rect x="116" y="131" width="107" height="10" rx="5" fill="#bfd8cc"/><path d="M119 174h99m-99 28h99m-99 28h75" stroke="#dce8e2" stroke-width="8" stroke-linecap="round"/><rect x="393" y="103" width="148" height="203" rx="16" fill="white" stroke="#00865f" stroke-width="4"/><path d="M467 134v38m-19-19h38" stroke="#00865f" stroke-width="7" stroke-linecap="round"/><path d="M419 210h98m-98 23h78" stroke="#bfd8cc" stroke-width="8" stroke-linecap="round"/><path d="M264 178h107m-22-22 22 22-22 22" fill="none" stroke="#00865f" stroke-width="7" stroke-linecap="round" stroke-linejoin="round"/><path d="M371 246H264m22-22-22 22 22 22" fill="none" stroke="#53b497" stroke-width="7" stroke-linecap="round" stroke-linejoin="round"/><circle cx="469" cy="300" r="43" fill="#00865f"/><path d="m449 300 13 13 28-29" fill="none" stroke="white" stroke-width="7" stroke-linecap="round" stroke-linejoin="round"/></svg>